<?xml version="1.0" encoding="UTF-8"?>
<!DOCTYPE svg PUBLIC "-//W3C//DTD SVG 1.1//EN" "http://www.w3.org/Graphics/SVG/1.1/DTD/svg11.dtd">
<!-- Creator: CorelDRAW X8 -->
<svg xmlns="http://www.w3.org/2000/svg" xml:space="preserve" width="297mm" height="100mm" version="1.1" style="shape-rendering:geometricPrecision; text-rendering:geometricPrecision; image-rendering:optimizeQuality; fill-rule:evenodd; clip-rule:evenodd"
viewBox="0 0 29700 10000"
 xmlns:xlink="http://www.w3.org/1999/xlink">
 <defs>
  <style type="text/css">
   <![CDATA[
    .fil0 {fill:white}
   ]]>
  </style>
 </defs>
 <g id="Camada_x0020_1">
  <metadata id="CorelCorpID_0Corel-Layer"/>
  <path class="fil0" d="M1953 5934l0 13c58,-15 114,-47 167,-70 131,-58 215,-87 355,-131 204,-66 612,-136 828,-142 46,-1 70,-6 114,-6 39,0 89,3 126,-1 194,-19 693,31 898,62 94,13 748,120 828,145 -9,75 -66,137 -98,181 -115,160 -411,670 -509,854 -286,536 -545,1127 -778,1687 -23,57 -60,141 -70,205 33,-22 89,-188 113,-243 35,-81 74,-160 112,-244 90,-203 249,-525 357,-717 101,-180 156,-265 271,-441 153,-236 257,-414 436,-638 108,-135 204,-269 318,-401 41,-47 123,-168 180,-178 40,-7 256,40 312,48 784,119 1091,199 1977,157 103,-5 221,-17 324,-29 306,-34 598,-82 883,-191 494,-190 990,-528 1080,-1068 49,-292 9,-632 -160,-868 -57,-80 -101,-119 -174,-181 -448,-380 -1225,-288 -1738,-129 -648,200 -1336,603 -1824,1041 -198,178 -435,430 -610,640 -21,26 -58,92 -85,99 -33,7 -583,-39 -665,-47 -225,-20 -467,-12 -691,-2 -563,26 -1290,147 -1794,356 -41,17 -84,33 -126,50l-182 85c-82,41 -135,54 -175,104zm4044 -487c45,25 294,71 361,83 732,131 1524,204 2248,-5 146,-42 276,-95 402,-163 234,-125 445,-313 582,-540 67,-111 139,-279 116,-439 -47,-336 -343,-464 -667,-464 -342,1 -673,100 -952,193 -358,119 -649,272 -966,458 -56,33 -123,75 -177,111l-473 340 -332 280c-22,19 -134,115 -142,146z"/>
  <path class="fil0" d="M9855 1377l-203 0 -46 11c-272,35 -532,206 -653,454 -18,37 -50,133 -73,161 -54,64 -236,83 -321,147 58,65 253,122 283,203 33,89 32,346 112,371 7,-339 -12,-629 204,-838 82,-80 92,-87 206,-143 98,-50 267,-80 405,-62 245,31 481,184 619,315 136,128 153,146 268,283l12 14c278,357 449,775 534,1222 81,430 42,852 -73,1247 -106,368 -270,624 -480,918 -88,123 -321,383 -445,489l-125 109c-554,479 -1248,845 -1935,1102l-690 244c-238,79 -485,144 -728,206l-760 167c99,69 1025,-1 1232,-27 461,-59 1017,-172 1454,-324l486 -187c250,-102 498,-233 727,-381 195,-125 335,-234 510,-382 135,-114 230,-206 343,-329 32,-34 71,-85 104,-119 183,-191 425,-584 530,-805 198,-420 364,-968 338,-1440 -16,-280 -41,-511 -118,-773 -143,-487 -331,-839 -617,-1164 -233,-264 -556,-561 -910,-647 -33,-9 -56,-16 -91,-22 -22,-4 -81,-9 -99,-20z"/>
  <path class="fil0" d="M12392 7363l898 -1c265,-20 505,-89 672,-237 241,-214 295,-679 30,-946 -64,-65 -117,-99 -202,-137l-87 -38c28,-27 90,-43 185,-116 302,-232 219,-694 33,-856 -225,-196 -391,-185 -712,-217 -228,-23 -575,-3 -815,-3l-2 2551zm530 -410c221,3 415,26 549,-103 136,-131 133,-454 -139,-524 -84,-22 -317,-30 -410,-16l0 643zm32 -1130c198,0 563,38 571,-279 8,-321 -301,-291 -570,-291l-1 570z"/>
  <path class="fil0" d="M23414 7473l57 0 0 -2661 -571 0 -1 1391c-48,-19 -715,-662 -810,-752l-601 -561c-35,-34 -68,-62 -102,-95 -45,-44 -38,-60 -125,-59l1 2630 569 -4 0 -1360c51,18 696,636 797,731l397 370c63,54 355,322 389,370z"/>
  <path class="fil0" d="M14586 4842l2 2527 1594 2c14,-97 10,-443 2,-553l-990 0 0 -485c170,0 713,7 842,-5l0 -525c-114,-16 -682,-6 -840,-6l0 -438 981 0 0 -553 -1517 -1c-52,0 -74,-12 -74,37z"/>
  <path class="fil0" d="M18472 7366l612 0 160 -366 1033 0c20,67 129,322 163,365l630 1c-15,-63 -841,-1757 -949,-1976l-235 -489c-20,-41 -62,-135 -82,-165 -58,1 -61,40 -106,130l-1062 2151c-36,74 -152,280 -164,349zm959 -814l639 0c1,-61 -45,-139 -69,-195l-240 -574c-9,9 -7,5 -16,19l-73 169c-29,67 -53,125 -82,192 -34,77 -145,311 -159,389z"/>
  <path class="fil0" d="M24857 7364l615 2c25,-64 56,-128 81,-185 26,-61 53,-127 82,-181l1032 0 155 364 632 2c-8,-62 -118,-272 -152,-339 -58,-116 -104,-214 -158,-326l-318 -659c-148,-340 -398,-797 -554,-1145 -15,-34 -76,-139 -70,-159l-55 -2c-11,59 -1045,2119 -1207,2455 -25,51 -65,116 -83,173zm966 -812l639 0c-1,-59 -123,-319 -150,-387 -51,-127 -104,-253 -159,-381 -49,40 -326,734 -330,768z"/>
  <path class="fil0" d="M14607 7356l1566 0 4 -522 -988 -1c-18,-59 -16,-441 -4,-511l836 -1 1 -508 -838 -2 -3 -470 976 0 5 -515 -1552 -2c-18,75 -6,1681 -6,1903 0,168 -18,479 3,629z"/>
  <polygon class="fil0" points="16345,5357 17151,5358 17152,7366 17775,7371 17775,5358 18579,5358 18581,4810 16347,4810 "/>
  <polygon class="fil0" points="16360,5342 17168,5344 17170,7359 17760,7355 17760,5346 18564,5344 18567,4830 16360,4829 "/>
  <polygon class="fil0" points="24050,7367 24666,7367 24668,4813 24051,4812 "/>
  <path class="fil0" d="M19633 3677c326,7 795,43 933,-233 71,-139 44,-386 -139,-475l-44 -21c-23,-13 -9,-4 -21,-14 92,-78 171,-89 194,-246 68,-480 -611,-407 -922,-400l-1 1389zm311 -259c181,1 334,11 342,-168 7,-187 -181,-179 -343,-178l1 346zm-1 -582c149,1 306,3 309,-155 4,-164 -166,-152 -306,-152l-3 307z"/>
  <path class="fil0" d="M14600 3677l329 -1 0 -402c0,-21 -2,-47 -2,-67 1,-3 2,-30 3,-32 9,-44 -3,-14 16,-38 45,6 35,6 63,51 17,26 35,52 49,73 32,46 58,83 93,136 65,99 134,186 190,281l381 0c-26,-48 -63,-94 -97,-140l-313 -451c31,-36 360,-192 212,-545 -131,-311 -597,-257 -924,-254l0 1389zm329 -758c172,0 314,-4 317,-183 4,-183 -154,-188 -316,-188l-1 371z"/>
  <path class="fil0" d="M14286 3607l13 -14c13,-11 29,-18 33,-34l-1 -646 -577 -3 -1 272 259 3 1 207c-112,24 -306,60 -407,-34 -3,-2 -5,-5 -8,-8 -50,-51 -67,-41 -113,-117 -256,-420 182,-878 605,-617 54,33 100,90 143,106l38 -337c-341,-299 -1197,-145 -1197,592 -1,483 368,783 808,741 177,-17 267,-61 404,-111z"/>
  <path class="fil0" d="M25772 3677l335 0 89 -203 556 0 68 165c18,35 19,39 57,39l307 0c-12,-57 -133,-284 -168,-357 -60,-125 -486,-1032 -522,-1074 -41,9 -68,90 -101,158 -133,275 -335,655 -446,902 -34,78 -165,315 -175,370zm525 -448l341 1c-10,-61 -89,-226 -118,-300l-43 -91c-1,-1 -3,-4 -5,-6 -32,29 -165,366 -175,396z"/>
  <path class="fil0" d="M20617 3678l336 0 89 -203 539 -1c35,14 43,63 56,94 13,31 34,78 46,110l354 0c-71,-148 -671,-1406 -698,-1431 -36,9 -69,101 -98,160 -32,64 -61,124 -91,183l-533 1088zm534 -448l333 0c-5,-49 -140,-373 -166,-406 -26,37 -165,356 -167,406z"/>
  <path class="fil0" d="M17558 3677l335 1c26,-62 61,-138 91,-202l537 -2c42,7 63,127 110,203l347 1c-183,-406 -436,-876 -608,-1264 -19,-43 -63,-155 -101,-167 -26,24 -314,623 -358,711l-353 719zm534 -447l332 0c0,-46 -140,-380 -166,-397 -30,41 -160,346 -166,397z"/>
  <path class="fil0" d="M23789 3277c-3,70 5,124 9,193l17 155c26,91 389,114 525,81 376,-93 472,-542 180,-761 -41,-31 -77,-58 -124,-85 -66,-39 -223,-112 -269,-159 -113,-115 13,-266 316,-129 45,20 106,59 137,70l3 -329c-122,-35 -234,-75 -370,-75 -198,0 -392,129 -430,297 -51,225 81,382 236,472 71,41 153,88 226,134 241,155 90,341 -208,256 -109,-32 -156,-73 -248,-120z"/>
  <path class="fil0" d="M16690 3379l-509 5c-14,-10 -21,4 -22,-66l8 -217 446 0 0 -264 -453 -3 1 -267 528 0 -2 -262 -830 2 6 1354 832 0 -5 -282z"/>
  <polygon class="fil0" points="21828,2587 22264,2590 22268,3681 22611,3681 22611,2590 23042,2589 23044,2284 21831,2284 "/>
  <polygon class="fil0" points="24762,2582 25198,2585 25201,3677 25537,3678 25539,2585 25976,2584 25976,2288 24763,2287 "/>
  <polygon class="fil0" points="21841,2574 22276,2576 22280,3664 22594,3665 22595,2579 23031,2575 23032,2309 21844,2305 "/>
  <path class="fil0" d="M16800 3382l28 315c150,29 290,48 434,-27 300,-155 229,-524 229,-846 0,-168 11,-373 -2,-536l-335 0c-9,250 -1,515 -1,766 0,382 -53,420 -353,328z"/>
  <polygon class="fil0" points="12505,3677 12555,3678 12797,3678 12849,3677 12849,2288 12808,2287 12545,2287 12505,2288 "/>
  <polygon class="fil0" points="23197,3676 23532,3678 23534,2288 23198,2288 "/>
  <path class="fil0" d="M9756 2257c0,-113 -84,-212 -200,-207 -289,13 -256,411 -7,408 121,-1 207,-86 207,-201z"/>
  <path class="fil0" d="M19250 4540l233 1 284 -362c53,33 233,287 295,360l233 2 -326 -616 -391 -2 -328 617z"/>
  <path class="fil0" d="M16690 3379l5 282 -832 0 -6 -1354 830 -2 2 262 -528 0 -1 267 453 3 0 264 -446 0 -8 217c1,70 8,56 22,66l-6 -263 457 -2 0 -303 -456 0 1 -229 531 -1 0 -299 -865 -3 -2 1396 874 1 -1 -265c-13,-41 13,-11 -24,-37z"/>
  <path class="fil0" d="M13598 3350c3,3 5,6 8,8 101,94 295,58 407,34l-1 -207 -259 -3 1 -272 577 3 1 646c-4,16 -20,23 -33,34l-13 14 56 -17 2 -693 -610 -2 0 302 262 1 0 186c-204,41 -223,22 -398,-34z"/>
 </g>
</svg>
